# xmcd
# 
# Track frame offsets:
#     150
#     15425
#     36365
#     51313
#     73948
#     103964
#     125285
#     143651
#     154846
#     170135
#     193021
#     216899
# 
# Disc length: 3322
# 
# Revision: 13
# Processed by: cddbd v1.5.2PL0 Copyright (c) Steve Scherf et al.
# Submitted via: fre:ac v1.0.31
# 
DISCID=b40cf80c
DTITLE=Modest Mouse - Building Nothing Out Of Something
DYEAR=2000
DGENRE=Rock/Pop
TTITLE0=Never Ending Math Equation
TTITLE1=Interstate 8
TTITLE2=Broke
TTITLE3=Medication
TTITLE4=Workin' On Leavin' The Livin'
TTITLE5=All Nite Diner
TTITLE6=Baby Blue Sedan
TTITLE7=A Life Of Artic Sounds
TTITLE8=Sleepwalkin'
TTITLE9=Grey Ice Water
TTITLE10=Whenever You Breathe Out, I Breathe In (Positive Negative)
TTITLE11=Other People's Lives
EXTD=YEAR: 1999 ID3G:  20\n
EXTT0=
EXTT1=
EXTT2=
EXTT3=
EXTT4=
EXTT5=
EXTT6=
EXTT7=
EXTT8=
EXTT9=
EXTT10=
EXTT11=
PLAYORDER=
